<mxfile host="app.diagrams.net" modified="2024-02-02T13:52:30.801Z" agent="Mozilla/5.0 (Macintosh; Intel Mac OS X 10_15_7) AppleWebKit/605.1.15 (KHTML, like Gecko) Version/17.1.2 Safari/605.1.15" etag="R4MD21cMbiBU4UZncLfT" version="23.1.1" type="github">
  <diagram name="Pagina-1" id="nsgeAsVRoze0se4LR9Zi">
    <mxGraphModel dx="1017" dy="1183" grid="0" gridSize="10" guides="1" tooltips="1" connect="1" arrows="1" fold="1" page="0" pageScale="1" pageWidth="827" pageHeight="1169" math="0" shadow="0">
      <root>
        <mxCell id="0" />
        <mxCell id="1" parent="0" />
        <mxCell id="ojNFc0rzkyxefYwJNT-2-1" value="UsedCars" style="swimlane;fontStyle=0;childLayout=stackLayout;horizontal=1;startSize=30;horizontalStack=0;resizeParent=1;resizeParentMax=0;resizeLast=0;collapsible=1;marginBottom=0;whiteSpace=wrap;html=1;fontSize=16;" vertex="1" parent="1">
          <mxGeometry x="-156" y="-193" width="598" height="390" as="geometry" />
        </mxCell>
        <mxCell id="ojNFc0rzkyxefYwJNT-2-2" value="ID INT PRIMARY KEY" style="text;strokeColor=none;fillColor=none;align=left;verticalAlign=middle;spacingLeft=4;spacingRight=4;overflow=hidden;points=[[0,0.5],[1,0.5]];portConstraint=eastwest;rotatable=0;whiteSpace=wrap;html=1;fontSize=16;" vertex="1" parent="ojNFc0rzkyxefYwJNT-2-1">
          <mxGeometry y="30" width="598" height="30" as="geometry" />
        </mxCell>
        <mxCell id="ojNFc0rzkyxefYwJNT-2-3" value="brand VARCHAR(20) NOT NULL INDEX" style="text;strokeColor=none;fillColor=none;align=left;verticalAlign=middle;spacingLeft=4;spacingRight=4;overflow=hidden;points=[[0,0.5],[1,0.5]];portConstraint=eastwest;rotatable=0;whiteSpace=wrap;html=1;fontSize=16;" vertex="1" parent="ojNFc0rzkyxefYwJNT-2-1">
          <mxGeometry y="60" width="598" height="30" as="geometry" />
        </mxCell>
        <mxCell id="ojNFc0rzkyxefYwJNT-2-4" value="model VARCHAR(20) NOT NULL INDEX" style="text;strokeColor=none;fillColor=none;align=left;verticalAlign=middle;spacingLeft=4;spacingRight=4;overflow=hidden;points=[[0,0.5],[1,0.5]];portConstraint=eastwest;rotatable=0;whiteSpace=wrap;html=1;fontSize=16;" vertex="1" parent="ojNFc0rzkyxefYwJNT-2-1">
          <mxGeometry y="90" width="598" height="30" as="geometry" />
        </mxCell>
        <mxCell id="ojNFc0rzkyxefYwJNT-2-5" value="price DECIMAL(7, 2) NOT NULL" style="text;strokeColor=none;fillColor=none;align=left;verticalAlign=middle;spacingLeft=4;spacingRight=4;overflow=hidden;points=[[0,0.5],[1,0.5]];portConstraint=eastwest;rotatable=0;whiteSpace=wrap;html=1;fontSize=16;" vertex="1" parent="ojNFc0rzkyxefYwJNT-2-1">
          <mxGeometry y="120" width="598" height="30" as="geometry" />
        </mxCell>
        <mxCell id="ojNFc0rzkyxefYwJNT-2-6" value="color VARCHAR(20) NULL" style="text;strokeColor=none;fillColor=none;align=left;verticalAlign=middle;spacingLeft=4;spacingRight=4;overflow=hidden;points=[[0,0.5],[1,0.5]];portConstraint=eastwest;rotatable=0;whiteSpace=wrap;html=1;fontSize=16;" vertex="1" parent="ojNFc0rzkyxefYwJNT-2-1">
          <mxGeometry y="150" width="598" height="30" as="geometry" />
        </mxCell>
        <mxCell id="ojNFc0rzkyxefYwJNT-2-9" value="year MEDIUMINT NULL" style="text;strokeColor=none;fillColor=none;align=left;verticalAlign=middle;spacingLeft=4;spacingRight=4;overflow=hidden;points=[[0,0.5],[1,0.5]];portConstraint=eastwest;rotatable=0;whiteSpace=wrap;html=1;fontSize=16;" vertex="1" parent="ojNFc0rzkyxefYwJNT-2-1">
          <mxGeometry y="180" width="598" height="30" as="geometry" />
        </mxCell>
        <mxCell id="ojNFc0rzkyxefYwJNT-2-7" value="power_supply VARCHAR(20) NULL" style="text;strokeColor=none;fillColor=none;align=left;verticalAlign=middle;spacingLeft=4;spacingRight=4;overflow=hidden;points=[[0,0.5],[1,0.5]];portConstraint=eastwest;rotatable=0;whiteSpace=wrap;html=1;fontSize=16;" vertex="1" parent="ojNFc0rzkyxefYwJNT-2-1">
          <mxGeometry y="210" width="598" height="30" as="geometry" />
        </mxCell>
        <mxCell id="ojNFc0rzkyxefYwJNT-2-11" value="transmission VARCHAR(20) NULL" style="text;strokeColor=none;fillColor=none;align=left;verticalAlign=middle;spacingLeft=4;spacingRight=4;overflow=hidden;points=[[0,0.5],[1,0.5]];portConstraint=eastwest;rotatable=0;whiteSpace=wrap;html=1;fontSize=16;" vertex="1" parent="ojNFc0rzkyxefYwJNT-2-1">
          <mxGeometry y="240" width="598" height="30" as="geometry" />
        </mxCell>
        <mxCell id="ojNFc0rzkyxefYwJNT-2-8" value="mileage MEDIUMINT NULL" style="text;strokeColor=none;fillColor=none;align=left;verticalAlign=middle;spacingLeft=4;spacingRight=4;overflow=hidden;points=[[0,0.5],[1,0.5]];portConstraint=eastwest;rotatable=0;whiteSpace=wrap;html=1;fontSize=16;" vertex="1" parent="ojNFc0rzkyxefYwJNT-2-1">
          <mxGeometry y="270" width="598" height="30" as="geometry" />
        </mxCell>
        <mxCell id="ojNFc0rzkyxefYwJNT-2-13" value="number_of_owners&amp;nbsp;TINYINT NULL" style="text;strokeColor=none;fillColor=none;align=left;verticalAlign=middle;spacingLeft=4;spacingRight=4;overflow=hidden;points=[[0,0.5],[1,0.5]];portConstraint=eastwest;rotatable=0;whiteSpace=wrap;html=1;fontSize=16;" vertex="1" parent="ojNFc0rzkyxefYwJNT-2-1">
          <mxGeometry y="300" width="598" height="30" as="geometry" />
        </mxCell>
        <mxCell id="ojNFc0rzkyxefYwJNT-2-10" value="license_plate VARCHAR(10) UNIQUE NULL" style="text;strokeColor=none;fillColor=none;align=left;verticalAlign=middle;spacingLeft=4;spacingRight=4;overflow=hidden;points=[[0,0.5],[1,0.5]];portConstraint=eastwest;rotatable=0;whiteSpace=wrap;html=1;fontSize=16;" vertex="1" parent="ojNFc0rzkyxefYwJNT-2-1">
          <mxGeometry y="330" width="598" height="30" as="geometry" />
        </mxCell>
        <mxCell id="ojNFc0rzkyxefYwJNT-2-14" value="n_chassis VARCHAR(17) UNIQUE NULL" style="text;strokeColor=none;fillColor=none;align=left;verticalAlign=middle;spacingLeft=4;spacingRight=4;overflow=hidden;points=[[0,0.5],[1,0.5]];portConstraint=eastwest;rotatable=0;whiteSpace=wrap;html=1;fontSize=16;" vertex="1" parent="ojNFc0rzkyxefYwJNT-2-1">
          <mxGeometry y="360" width="598" height="30" as="geometry" />
        </mxCell>
        <mxCell id="ojNFc0rzkyxefYwJNT-2-12" value="&#39;brand&#39; e &#39;model&#39; sono stringhe che indicano la marca ed il modello delle auto; sono obbligatorie NOT NULL, come price, e sono indicate come INDEX per agevolare ricerche future tramite marca o modello d&#39;auto. &#39;license_plate&#39; rappresenta la targa, è un valore unico che non può essere ripetuto nella colonna della tabella; stesso discorso per il numero del telaio &#39;n_chassis&#39;. Tutte le altre colonne della tabella sono state impostate come NULL, in modo da poterle inserire in futuro se all&#39;inizio non si è a conoscenza/in possesso di alcune informazioni." style="text;strokeColor=none;fillColor=none;align=left;verticalAlign=middle;spacingLeft=4;spacingRight=4;overflow=hidden;points=[[0,0.5],[1,0.5]];portConstraint=eastwest;rotatable=0;whiteSpace=wrap;html=1;fontSize=16;" vertex="1" parent="1">
          <mxGeometry x="-148" y="199" width="582" height="223" as="geometry" />
        </mxCell>
      </root>
    </mxGraphModel>
  </diagram>
</mxfile>
